<?xml version="1.0" encoding="UTF-8" standalone="no"?>
<!DOCTYPE svg PUBLIC "-//W3C//DTD SVG 1.1//EN" "http://www.w3.org/Graphics/SVG/1.1/DTD/svg11.dtd">
<svg width="100%" height="100%" viewBox="0 0 684 185" version="1.1" xmlns="http://www.w3.org/2000/svg" xmlns:xlink="http://www.w3.org/1999/xlink" xml:space="preserve" xmlns:serif="http://www.serif.com/" style="fill-rule:evenodd;clip-rule:evenodd;stroke-linejoin:round;stroke-miterlimit:2;">
    <g transform="matrix(1,0,0,1,-93.224,-137.078)">
        <g>
            <g transform="matrix(116.217,0,0,116.217,87.5293,219.709)">
                <path d="M0.049,-0.394L0.241,-0.394L0.241,-0.593L0.358,-0.593L0.358,-0.394L0.551,-0.394L0.551,-0.282L0.358,-0.282L0.358,-0.081L0.241,-0.081L0.241,-0.282L0.049,-0.282L0.049,-0.394Z" style="fill-rule:nonzero;"/>
            </g>
            <g transform="matrix(116.217,0,0,116.217,157.259,219.709)">
                <path d="M0.402,-0.138C0.402,-0.151 0.394,-0.162 0.378,-0.17C0.361,-0.178 0.341,-0.185 0.317,-0.192C0.293,-0.199 0.267,-0.206 0.238,-0.213C0.209,-0.22 0.183,-0.229 0.159,-0.242C0.135,-0.254 0.115,-0.27 0.099,-0.289C0.082,-0.308 0.074,-0.332 0.074,-0.362C0.074,-0.387 0.08,-0.408 0.091,-0.427C0.101,-0.446 0.117,-0.462 0.136,-0.475C0.155,-0.488 0.177,-0.497 0.204,-0.504C0.23,-0.511 0.258,-0.514 0.289,-0.514C0.322,-0.514 0.35,-0.512 0.375,-0.507C0.4,-0.502 0.421,-0.497 0.44,-0.49C0.458,-0.483 0.474,-0.476 0.487,-0.468C0.5,-0.459 0.511,-0.452 0.52,-0.445L0.465,-0.356C0.455,-0.362 0.444,-0.368 0.431,-0.375C0.418,-0.381 0.404,-0.387 0.39,-0.392C0.375,-0.397 0.36,-0.402 0.345,-0.405C0.329,-0.408 0.313,-0.41 0.298,-0.41C0.27,-0.41 0.247,-0.406 0.23,-0.399C0.213,-0.392 0.204,-0.38 0.204,-0.365C0.204,-0.353 0.212,-0.343 0.229,-0.336C0.245,-0.329 0.265,-0.322 0.289,-0.316C0.313,-0.309 0.339,-0.302 0.368,-0.295C0.397,-0.288 0.423,-0.278 0.447,-0.267C0.471,-0.255 0.491,-0.24 0.508,-0.221C0.524,-0.202 0.532,-0.178 0.532,-0.149C0.532,-0.098 0.514,-0.058 0.477,-0.03C0.44,-0.001 0.385,0.014 0.312,0.014C0.255,0.014 0.205,0.006 0.164,-0.012C0.122,-0.028 0.088,-0.048 0.063,-0.071L0.123,-0.165C0.132,-0.158 0.143,-0.15 0.158,-0.141C0.172,-0.132 0.188,-0.123 0.206,-0.116C0.224,-0.109 0.243,-0.102 0.264,-0.098C0.284,-0.092 0.304,-0.09 0.324,-0.09C0.345,-0.09 0.364,-0.094 0.379,-0.101C0.394,-0.108 0.402,-0.121 0.402,-0.138Z" style="fill-rule:nonzero;"/>
            </g>
            <g transform="matrix(116.217,0,0,116.217,226.99,219.709)">
                <path d="M0.534,-0.053C0.525,-0.045 0.514,-0.037 0.501,-0.03C0.487,-0.022 0.471,-0.015 0.453,-0.008C0.434,-0.001 0.414,0.004 0.392,0.008C0.37,0.012 0.347,0.014 0.322,0.014C0.279,0.014 0.241,0.008 0.208,-0.004C0.174,-0.016 0.145,-0.034 0.122,-0.057C0.099,-0.08 0.081,-0.107 0.069,-0.14C0.056,-0.172 0.05,-0.209 0.05,-0.25C0.05,-0.294 0.057,-0.333 0.071,-0.366C0.085,-0.399 0.104,-0.426 0.129,-0.448C0.153,-0.47 0.181,-0.487 0.214,-0.498C0.247,-0.509 0.282,-0.514 0.32,-0.514C0.345,-0.514 0.372,-0.511 0.399,-0.504C0.426,-0.497 0.45,-0.486 0.473,-0.47C0.496,-0.453 0.514,-0.431 0.529,-0.404C0.543,-0.377 0.55,-0.342 0.55,-0.3C0.55,-0.271 0.547,-0.24 0.54,-0.207L0.18,-0.207C0.181,-0.186 0.185,-0.168 0.194,-0.153C0.202,-0.138 0.213,-0.126 0.227,-0.117C0.24,-0.108 0.256,-0.101 0.274,-0.097C0.291,-0.092 0.31,-0.09 0.33,-0.09C0.37,-0.09 0.403,-0.095 0.429,-0.104C0.454,-0.113 0.475,-0.125 0.491,-0.138L0.534,-0.053ZM0.318,-0.41C0.301,-0.41 0.284,-0.408 0.269,-0.403C0.254,-0.398 0.24,-0.392 0.228,-0.383C0.215,-0.374 0.205,-0.362 0.197,-0.349C0.189,-0.336 0.184,-0.321 0.183,-0.304L0.429,-0.304C0.429,-0.337 0.42,-0.363 0.402,-0.382C0.383,-0.401 0.355,-0.41 0.318,-0.41Z" style="fill-rule:nonzero;"/>
            </g>
            <g transform="matrix(116.217,0,0,116.217,296.72,219.709)">
                <path d="M0.546,-0.048C0.519,-0.027 0.487,-0.012 0.45,-0.002C0.413,0.009 0.375,0.014 0.335,0.014C0.292,0.014 0.253,0.008 0.22,-0.005C0.186,-0.018 0.158,-0.036 0.135,-0.059C0.112,-0.082 0.094,-0.109 0.082,-0.142C0.07,-0.175 0.064,-0.211 0.064,-0.25C0.064,-0.292 0.071,-0.329 0.085,-0.362C0.099,-0.395 0.119,-0.422 0.144,-0.445C0.169,-0.468 0.198,-0.485 0.232,-0.497C0.266,-0.508 0.303,-0.514 0.343,-0.514C0.38,-0.514 0.415,-0.51 0.448,-0.501C0.481,-0.492 0.506,-0.484 0.523,-0.476L0.523,-0.3L0.413,-0.3L0.413,-0.392C0.392,-0.397 0.372,-0.399 0.351,-0.399C0.332,-0.399 0.314,-0.396 0.296,-0.391C0.277,-0.385 0.261,-0.376 0.247,-0.364C0.232,-0.351 0.221,-0.336 0.212,-0.317C0.203,-0.298 0.198,-0.276 0.198,-0.25C0.198,-0.229 0.202,-0.209 0.209,-0.191C0.216,-0.173 0.227,-0.157 0.24,-0.144C0.253,-0.131 0.27,-0.12 0.29,-0.113C0.309,-0.105 0.331,-0.101 0.355,-0.101C0.393,-0.101 0.424,-0.106 0.449,-0.117C0.473,-0.128 0.491,-0.137 0.503,-0.145L0.546,-0.048Z" style="fill-rule:nonzero;"/>
            </g>
            <g transform="matrix(116.217,0,0,116.217,366.45,219.709)">
                <path d="M0.33,-0.5L0.516,-0.5L0.516,-0.11L0.592,-0.11L0.592,-0L0.434,-0L0.411,-0.074L0.407,-0.074C0.392,-0.049 0.369,-0.028 0.338,-0.011C0.307,0.006 0.273,0.014 0.236,0.014C0.211,0.014 0.188,0.011 0.167,0.004C0.146,-0.003 0.128,-0.014 0.113,-0.029C0.098,-0.044 0.087,-0.065 0.079,-0.091C0.071,-0.117 0.067,-0.15 0.067,-0.189L0.067,-0.39L0.01,-0.39L0.01,-0.5L0.197,-0.5L0.197,-0.216C0.197,-0.175 0.204,-0.146 0.217,-0.128C0.23,-0.11 0.25,-0.101 0.278,-0.101C0.303,-0.101 0.325,-0.108 0.345,-0.123C0.364,-0.138 0.378,-0.156 0.386,-0.177L0.386,-0.39L0.33,-0.39L0.33,-0.5Z" style="fill-rule:nonzero;"/>
            </g>
            <g transform="matrix(116.217,0,0,116.217,436.18,219.709)">
                <path d="M0.039,-0.11L0.163,-0.11L0.163,-0.39L0.039,-0.39L0.039,-0.5L0.264,-0.5L0.279,-0.434L0.283,-0.434C0.302,-0.456 0.323,-0.474 0.347,-0.489C0.371,-0.504 0.399,-0.511 0.431,-0.511C0.471,-0.511 0.502,-0.496 0.526,-0.467C0.549,-0.438 0.56,-0.389 0.56,-0.32L0.443,-0.32C0.443,-0.344 0.44,-0.362 0.433,-0.373C0.426,-0.384 0.414,-0.389 0.399,-0.389C0.372,-0.389 0.351,-0.382 0.335,-0.369C0.318,-0.356 0.304,-0.34 0.293,-0.323L0.293,-0.11L0.51,-0.11L0.51,-0L0.039,-0L0.039,-0.11Z" style="fill-rule:nonzero;"/>
            </g>
            <g transform="matrix(116.217,0,0,116.217,505.91,219.709)">
                <path d="M0.059,-0.11L0.235,-0.11L0.235,-0.39L0.059,-0.39L0.059,-0.5L0.365,-0.5L0.365,-0.11L0.55,-0.11L0.55,-0L0.059,-0L0.059,-0.11ZM0.211,-0.636C0.211,-0.657 0.219,-0.674 0.234,-0.689C0.249,-0.704 0.271,-0.711 0.298,-0.711C0.326,-0.711 0.348,-0.704 0.365,-0.689C0.382,-0.674 0.39,-0.657 0.39,-0.636C0.39,-0.615 0.382,-0.597 0.365,-0.584C0.348,-0.57 0.326,-0.563 0.298,-0.563C0.271,-0.563 0.249,-0.57 0.234,-0.584C0.219,-0.597 0.211,-0.615 0.211,-0.636Z" style="fill-rule:nonzero;"/>
            </g>
            <g transform="matrix(116.217,0,0,116.217,575.64,219.709)">
                <path d="M0.116,-0.39L0.017,-0.39L0.017,-0.5L0.116,-0.5L0.116,-0.614L0.246,-0.651L0.246,-0.5L0.508,-0.5L0.508,-0.39L0.246,-0.39L0.246,-0.247C0.246,-0.196 0.256,-0.159 0.275,-0.136C0.294,-0.113 0.321,-0.101 0.356,-0.101C0.374,-0.101 0.39,-0.103 0.405,-0.108C0.42,-0.112 0.433,-0.117 0.445,-0.124C0.456,-0.131 0.467,-0.138 0.477,-0.146C0.486,-0.154 0.495,-0.161 0.503,-0.168L0.563,-0.078C0.552,-0.065 0.538,-0.053 0.521,-0.042C0.503,-0.031 0.485,-0.021 0.466,-0.013C0.446,-0.004 0.425,0.002 0.404,0.007C0.383,0.012 0.362,0.014 0.341,0.014C0.266,0.014 0.21,-0.007 0.173,-0.049C0.135,-0.09 0.116,-0.156 0.116,-0.247L0.116,-0.39Z" style="fill-rule:nonzero;"/>
            </g>
            <g transform="matrix(116.217,0,0,116.217,645.37,219.709)">
                <path d="M0.301,-0.141L0.339,-0.141L0.436,-0.5L0.57,-0.5L0.428,-0.049C0.415,-0.012 0.403,0.023 0.391,0.054C0.379,0.085 0.365,0.111 0.349,0.134C0.333,0.157 0.314,0.174 0.293,0.187C0.271,0.199 0.244,0.205 0.213,0.205C0.198,0.205 0.183,0.203 0.17,0.199C0.156,0.195 0.143,0.19 0.132,0.185C0.121,0.179 0.111,0.173 0.102,0.167C0.093,0.16 0.086,0.154 0.081,0.149L0.148,0.06C0.157,0.067 0.167,0.074 0.179,0.081C0.191,0.087 0.202,0.09 0.213,0.09C0.233,0.09 0.249,0.083 0.261,0.069C0.272,0.055 0.283,0.032 0.294,-0L0.223,-0L0.015,-0.5L0.156,-0.5L0.301,-0.141Z" style="fill-rule:nonzero;"/>
            </g>
            <g transform="matrix(116.217,0,0,116.217,157.259,319.709)">
                <path d="M0,-0.7L0.202,-0.7L0.202,-0.444L0.206,-0.444C0.222,-0.465 0.243,-0.482 0.27,-0.495C0.297,-0.508 0.328,-0.514 0.364,-0.514C0.389,-0.514 0.413,-0.511 0.434,-0.504C0.455,-0.497 0.474,-0.486 0.489,-0.471C0.504,-0.456 0.516,-0.435 0.525,-0.409C0.534,-0.382 0.538,-0.35 0.538,-0.311L0.538,-0L0.408,-0L0.408,-0.284C0.408,-0.325 0.399,-0.354 0.382,-0.372C0.365,-0.39 0.342,-0.399 0.314,-0.399C0.289,-0.399 0.267,-0.392 0.246,-0.377C0.225,-0.362 0.211,-0.342 0.202,-0.319L0.202,-0L0.072,-0L0.072,-0.59L0,-0.59L0,-0.7Z" style="fill-rule:nonzero;"/>
            </g>
            <g transform="matrix(116.217,0,0,116.217,226.99,319.709)">
                <path d="M0.534,-0.053C0.525,-0.045 0.514,-0.037 0.501,-0.03C0.487,-0.022 0.471,-0.015 0.453,-0.008C0.434,-0.001 0.414,0.004 0.392,0.008C0.37,0.012 0.347,0.014 0.322,0.014C0.279,0.014 0.241,0.008 0.208,-0.004C0.174,-0.016 0.145,-0.034 0.122,-0.057C0.099,-0.08 0.081,-0.107 0.069,-0.14C0.056,-0.172 0.05,-0.209 0.05,-0.25C0.05,-0.294 0.057,-0.333 0.071,-0.366C0.085,-0.399 0.104,-0.426 0.129,-0.448C0.153,-0.47 0.181,-0.487 0.214,-0.498C0.247,-0.509 0.282,-0.514 0.32,-0.514C0.345,-0.514 0.372,-0.511 0.399,-0.504C0.426,-0.497 0.45,-0.486 0.473,-0.47C0.496,-0.453 0.514,-0.431 0.529,-0.404C0.543,-0.377 0.55,-0.342 0.55,-0.3C0.55,-0.271 0.547,-0.24 0.54,-0.207L0.18,-0.207C0.181,-0.186 0.185,-0.168 0.194,-0.153C0.202,-0.138 0.213,-0.126 0.227,-0.117C0.24,-0.108 0.256,-0.101 0.274,-0.097C0.291,-0.092 0.31,-0.09 0.33,-0.09C0.37,-0.09 0.403,-0.095 0.429,-0.104C0.454,-0.113 0.475,-0.125 0.491,-0.138L0.534,-0.053ZM0.318,-0.41C0.301,-0.41 0.284,-0.408 0.269,-0.403C0.254,-0.398 0.24,-0.392 0.228,-0.383C0.215,-0.374 0.205,-0.362 0.197,-0.349C0.189,-0.336 0.184,-0.321 0.183,-0.304L0.429,-0.304C0.429,-0.337 0.42,-0.363 0.402,-0.382C0.383,-0.401 0.355,-0.41 0.318,-0.41Z" style="fill-rule:nonzero;"/>
            </g>
            <g transform="matrix(116.217,0,0,116.217,296.72,319.709)">
                <path d="M0.09,-0.466C0.117,-0.478 0.148,-0.488 0.183,-0.497C0.218,-0.506 0.259,-0.51 0.307,-0.51C0.342,-0.51 0.371,-0.506 0.396,-0.498C0.42,-0.489 0.44,-0.477 0.455,-0.462C0.47,-0.447 0.48,-0.428 0.487,-0.407C0.494,-0.386 0.497,-0.362 0.497,-0.335C0.497,-0.301 0.496,-0.272 0.494,-0.248C0.491,-0.224 0.49,-0.203 0.49,-0.184C0.49,-0.17 0.491,-0.154 0.492,-0.137C0.493,-0.128 0.494,-0.119 0.495,-0.11L0.56,-0.11L0.56,-0L0.394,-0L0.381,-0.068L0.376,-0.068C0.363,-0.047 0.344,-0.029 0.319,-0.015C0.294,0 0.261,0.008 0.219,0.008C0.169,0.008 0.129,-0.005 0.1,-0.032C0.071,-0.059 0.056,-0.094 0.056,-0.138C0.056,-0.166 0.061,-0.19 0.072,-0.211C0.082,-0.231 0.097,-0.247 0.117,-0.261C0.136,-0.274 0.16,-0.283 0.188,-0.29C0.215,-0.296 0.246,-0.299 0.28,-0.299C0.292,-0.299 0.305,-0.298 0.318,-0.297C0.331,-0.296 0.348,-0.294 0.367,-0.293C0.368,-0.3 0.369,-0.306 0.369,-0.313L0.369,-0.332C0.369,-0.357 0.362,-0.376 0.347,-0.387C0.332,-0.398 0.311,-0.403 0.282,-0.403C0.248,-0.403 0.217,-0.399 0.19,-0.39C0.163,-0.381 0.14,-0.373 0.121,-0.364L0.09,-0.466ZM0.261,-0.099C0.293,-0.099 0.317,-0.105 0.333,-0.117C0.349,-0.128 0.361,-0.141 0.368,-0.154L0.368,-0.214C0.361,-0.215 0.351,-0.217 0.338,-0.219C0.325,-0.22 0.31,-0.221 0.295,-0.221C0.282,-0.221 0.27,-0.22 0.257,-0.218C0.244,-0.215 0.233,-0.212 0.223,-0.207C0.213,-0.202 0.205,-0.195 0.199,-0.187C0.193,-0.179 0.19,-0.169 0.19,-0.158C0.19,-0.139 0.196,-0.125 0.207,-0.115C0.218,-0.104 0.236,-0.099 0.261,-0.099Z" style="fill-rule:nonzero;"/>
            </g>
            <g transform="matrix(116.217,0,0,116.217,366.45,319.709)">
                <path d="M0.306,-0.7L0.515,-0.7L0.515,-0.268C0.515,-0.218 0.518,-0.169 0.523,-0.12C0.523,-0.117 0.523,-0.113 0.524,-0.11L0.588,-0.11L0.588,-0L0.427,-0L0.414,-0.064L0.41,-0.064C0.403,-0.052 0.394,-0.041 0.383,-0.032C0.372,-0.023 0.359,-0.015 0.345,-0.008C0.331,-0 0.316,0.005 0.299,0.009C0.282,0.012 0.266,0.014 0.249,0.014C0.218,0.014 0.188,0.009 0.161,-0.001C0.133,-0.011 0.109,-0.027 0.088,-0.048C0.067,-0.069 0.051,-0.095 0.039,-0.128C0.027,-0.16 0.021,-0.198 0.021,-0.242C0.021,-0.285 0.028,-0.323 0.041,-0.356C0.054,-0.389 0.071,-0.418 0.095,-0.441C0.118,-0.464 0.145,-0.481 0.176,-0.494C0.207,-0.506 0.242,-0.512 0.279,-0.512C0.3,-0.512 0.319,-0.511 0.338,-0.509C0.356,-0.506 0.372,-0.502 0.385,-0.497L0.385,-0.59L0.306,-0.59L0.306,-0.7ZM0.279,-0.096C0.304,-0.096 0.327,-0.102 0.347,-0.115C0.366,-0.127 0.379,-0.145 0.385,-0.168L0.385,-0.38C0.376,-0.387 0.363,-0.393 0.347,-0.397C0.33,-0.4 0.313,-0.402 0.295,-0.402C0.277,-0.402 0.26,-0.399 0.243,-0.393C0.226,-0.387 0.211,-0.378 0.198,-0.365C0.185,-0.352 0.174,-0.335 0.167,-0.314C0.159,-0.293 0.155,-0.268 0.155,-0.238C0.155,-0.195 0.166,-0.161 0.187,-0.135C0.208,-0.109 0.239,-0.096 0.279,-0.096Z" style="fill-rule:nonzero;"/>
            </g>
            <g transform="matrix(116.217,0,0,116.217,436.18,319.709)">
                <path d="M0.087,-0.7L0.3,-0.7L0.3,-0.238C0.3,-0.187 0.306,-0.151 0.319,-0.131C0.332,-0.111 0.352,-0.101 0.38,-0.101C0.401,-0.101 0.418,-0.103 0.431,-0.108C0.444,-0.112 0.458,-0.118 0.471,-0.126L0.52,-0.036C0.509,-0.029 0.497,-0.022 0.486,-0.016C0.475,-0.009 0.463,-0.004 0.45,0.001C0.437,0.005 0.424,0.008 0.409,0.011C0.394,0.013 0.377,0.014 0.358,0.014C0.295,0.014 0.248,-0.002 0.217,-0.034C0.186,-0.066 0.17,-0.111 0.17,-0.17L0.17,-0.59L0.087,-0.59L0.087,-0.7Z" style="fill-rule:nonzero;"/>
            </g>
            <g transform="matrix(116.217,0,0,116.217,505.91,319.709)">
                <path d="M0.059,-0.11L0.235,-0.11L0.235,-0.39L0.059,-0.39L0.059,-0.5L0.365,-0.5L0.365,-0.11L0.55,-0.11L0.55,-0L0.059,-0L0.059,-0.11ZM0.211,-0.636C0.211,-0.657 0.219,-0.674 0.234,-0.689C0.249,-0.704 0.271,-0.711 0.298,-0.711C0.326,-0.711 0.348,-0.704 0.365,-0.689C0.382,-0.674 0.39,-0.657 0.39,-0.636C0.39,-0.615 0.382,-0.597 0.365,-0.584C0.348,-0.57 0.326,-0.563 0.298,-0.563C0.271,-0.563 0.249,-0.57 0.234,-0.584C0.219,-0.597 0.211,-0.615 0.211,-0.636Z" style="fill-rule:nonzero;"/>
            </g>
            <g transform="matrix(116.217,0,0,116.217,575.64,319.709)">
                <path d="M0.012,-0.5L0.187,-0.5L0.202,-0.434L0.206,-0.434C0.221,-0.455 0.243,-0.474 0.272,-0.49C0.301,-0.506 0.335,-0.514 0.375,-0.514C0.4,-0.514 0.423,-0.511 0.445,-0.504C0.466,-0.497 0.485,-0.486 0.5,-0.471C0.515,-0.456 0.528,-0.435 0.537,-0.409C0.546,-0.382 0.55,-0.35 0.55,-0.311L0.55,-0L0.42,-0L0.42,-0.284C0.42,-0.325 0.411,-0.354 0.393,-0.372C0.374,-0.39 0.351,-0.399 0.323,-0.399C0.298,-0.399 0.276,-0.392 0.256,-0.378C0.235,-0.363 0.221,-0.345 0.214,-0.324L0.214,-0L0.084,-0L0.084,-0.39L0.012,-0.39L0.012,-0.5Z" style="fill-rule:nonzero;"/>
            </g>
            <g transform="matrix(116.217,0,0,116.217,645.37,319.709)">
                <path d="M0.534,-0.053C0.525,-0.045 0.514,-0.037 0.501,-0.03C0.487,-0.022 0.471,-0.015 0.453,-0.008C0.434,-0.001 0.414,0.004 0.392,0.008C0.37,0.012 0.347,0.014 0.322,0.014C0.279,0.014 0.241,0.008 0.208,-0.004C0.174,-0.016 0.145,-0.034 0.122,-0.057C0.099,-0.08 0.081,-0.107 0.069,-0.14C0.056,-0.172 0.05,-0.209 0.05,-0.25C0.05,-0.294 0.057,-0.333 0.071,-0.366C0.085,-0.399 0.104,-0.426 0.129,-0.448C0.153,-0.47 0.181,-0.487 0.214,-0.498C0.247,-0.509 0.282,-0.514 0.32,-0.514C0.345,-0.514 0.372,-0.511 0.399,-0.504C0.426,-0.497 0.45,-0.486 0.473,-0.47C0.496,-0.453 0.514,-0.431 0.529,-0.404C0.543,-0.377 0.55,-0.342 0.55,-0.3C0.55,-0.271 0.547,-0.24 0.54,-0.207L0.18,-0.207C0.181,-0.186 0.185,-0.168 0.194,-0.153C0.202,-0.138 0.213,-0.126 0.227,-0.117C0.24,-0.108 0.256,-0.101 0.274,-0.097C0.291,-0.092 0.31,-0.09 0.33,-0.09C0.37,-0.09 0.403,-0.095 0.429,-0.104C0.454,-0.113 0.475,-0.125 0.491,-0.138L0.534,-0.053ZM0.318,-0.41C0.301,-0.41 0.284,-0.408 0.269,-0.403C0.254,-0.398 0.24,-0.392 0.228,-0.383C0.215,-0.374 0.205,-0.362 0.197,-0.349C0.189,-0.336 0.184,-0.321 0.183,-0.304L0.429,-0.304C0.429,-0.337 0.42,-0.363 0.402,-0.382C0.383,-0.401 0.355,-0.41 0.318,-0.41Z" style="fill-rule:nonzero;"/>
            </g>
            <g transform="matrix(116.217,0,0,116.217,715.1,319.709)">
                <path d="M0.402,-0.138C0.402,-0.151 0.394,-0.162 0.378,-0.17C0.361,-0.178 0.341,-0.185 0.317,-0.192C0.293,-0.199 0.267,-0.206 0.238,-0.213C0.209,-0.22 0.183,-0.229 0.159,-0.242C0.135,-0.254 0.115,-0.27 0.099,-0.289C0.082,-0.308 0.074,-0.332 0.074,-0.362C0.074,-0.387 0.08,-0.408 0.091,-0.427C0.101,-0.446 0.117,-0.462 0.136,-0.475C0.155,-0.488 0.177,-0.497 0.204,-0.504C0.23,-0.511 0.258,-0.514 0.289,-0.514C0.322,-0.514 0.35,-0.512 0.375,-0.507C0.4,-0.502 0.421,-0.497 0.44,-0.49C0.458,-0.483 0.474,-0.476 0.487,-0.468C0.5,-0.459 0.511,-0.452 0.52,-0.445L0.465,-0.356C0.455,-0.362 0.444,-0.368 0.431,-0.375C0.418,-0.381 0.404,-0.387 0.39,-0.392C0.375,-0.397 0.36,-0.402 0.345,-0.405C0.329,-0.408 0.313,-0.41 0.298,-0.41C0.27,-0.41 0.247,-0.406 0.23,-0.399C0.213,-0.392 0.204,-0.38 0.204,-0.365C0.204,-0.353 0.212,-0.343 0.229,-0.336C0.245,-0.329 0.265,-0.322 0.289,-0.316C0.313,-0.309 0.339,-0.302 0.368,-0.295C0.397,-0.288 0.423,-0.278 0.447,-0.267C0.471,-0.255 0.491,-0.24 0.508,-0.221C0.524,-0.202 0.532,-0.178 0.532,-0.149C0.532,-0.098 0.514,-0.058 0.477,-0.03C0.44,-0.001 0.385,0.014 0.312,0.014C0.255,0.014 0.205,0.006 0.164,-0.012C0.122,-0.028 0.088,-0.048 0.063,-0.071L0.123,-0.165C0.132,-0.158 0.143,-0.15 0.158,-0.141C0.172,-0.132 0.188,-0.123 0.206,-0.116C0.224,-0.109 0.243,-0.102 0.264,-0.098C0.284,-0.092 0.304,-0.09 0.324,-0.09C0.345,-0.09 0.364,-0.094 0.379,-0.101C0.394,-0.108 0.402,-0.121 0.402,-0.138Z" style="fill-rule:nonzero;"/>
            </g>
        </g>
    </g>
</svg>
